{"title":"Rise of the Planet of the Apes 2011 BluRay 10Bit 1080p DD5.1 H26","magnet":"magnet:?xt=urn:btih:334c63ca2a54daf519f649f6f257d47571001c08&dn=Rise+of+the+Planet+of+the+Apes+2011+BluRay+10Bit+1080p+DD5.1+H26&tr=udp%3A%2F%2Ftracker.leechers-paradise.org%3A6969&tr=udp%3A%2F%2Fzer0day.ch%3A1337&tr=udp%3A%2F%2Fopen.demonii.com%3A1337&tr=udp%3A%2F%2Ftracker.coppersurfer.tk%3A6969&tr=udp%3A%2F%2Fexodus.desync.com%3A6969","uploader":"roflcopter2110","categoryP":"video","categoryS":"hd___movies","size":"2667306092","seeders":"0","leechers":"0","description":"Rise of the Planet of the Apes 2011 BluRay 10Bit 1080p DD5.1 H265-d3g\r\n <a href=\"\nhttps://i.imgur.com/tunDubU.jpg\" rel=\"nofollow\" target=\"_NEW\">\nhttps://i.imgur.com/tunDubU.jpg</a>\r\n\r\nPlot:\r\nWill Rodman (James Franco), a scientist in San Francisco, is experimenting with a drug that he hopes will cure his father&apos;s (John Lithgow) Alzheimer&apos;s disease. After his work is deemed a failure, Will becomes the guardian of Caesar, an infant chimp who was exposed in-utero to Will&apos;s drug. Caesar displays unusual intelligence, and Will decides to continue his experiments secretly. But as Caesar&apos;s intellect and abilities grow, he comes to represent a threat to man&apos;s dominion over Earth.\r\n\r\nRelease date: August 5, 2011 (USA)\r\n\r\nInfo:\r\nSource: UHD BlueRay REMUX\r\n\r\nFormat: Matroska\r\nFormat version: Version 2\r\nFile size: 2.48 GiB\r\nDuration: 1 h 44 min\r\nOverall bit rate: 3 389 kb/s\r\nMovie name: Rise of the Planet of the Apes 2011 BluRay 10Bit 1080p DD5.1 H265-d3g\r\nEncoded date: UTC 2017-11-16 20:17:46\r\nWriting application: DVDFab 10.0.6.6\r\nWriting library: libebml v1.3.4 + libmatroska v1.4.5\r\n\r\nVideo\r\nID: 1\r\nFormat: HEVC\r\nFormat/Info: High Efficiency Video Coding\r\nFormat profile: Main <a href=\"/cdn-cgi/l/email-protection\" class=\"__cf_email__\" data-cfemail=\"ac9d9cece098\">[email&#xA0;protected]</a>@High\r\nCodec ID: V_MPEGH/ISO/HEVC\r\nDuration: 1 h 44 min\r\nBit rate: 2 939 kb/s\r\nWidth: 1 920 pixels\r\nHeight: 800 pixels\r\nDisplay aspect ratio: 2.40:1\r\nFrame rate mode: Constant\r\nFrame rate: 23.976 (24000/1001) FPS\r\nColor space: YUV\r\nChroma subsampling: 4:2:0\r\nBit depth: 10 bits\r\nBits/(Pixel*Frame): 0.080\r\nStream size: 2.15 GiB (87%)\r\nDefault: Yes\r\nForced: No\r\nColor range: Limited\r\nColor primaries: BT.709\r\nTransfer characteristics: BT.709\r\nMatrix coefficients: BT.709\r\n\r\nAudio\r\nID: 2\r\nFormat: AC-3\r\nFormat/Info: Audio Coding 3\r\nFormat settings, Endianness: Big\r\nCodec ID: A_AC3\r\nDuration: 1 h 44 min\r\nBit rate mode: Constant\r\nBit rate: 448 kb/s\r\nChannel(s): 6 channels\r\nChannel positions: Front: L C R, Side: L R, LFE\r\nSampling rate: 48.0 kHz\r\nFrame rate: 31.250 FPS (1536 SPF)\r\nBit depth: 16 bits\r\nCompression mode: Lossy\r\nStream size: 336 MiB (13%)\r\nLanguage: English\r\nService kind: Complete Main\r\nDefault: Yes\r\nForced: No\r\n\r\nText\r\nID: 3\r\nFormat: VobSub\r\nCodec ID: S_VOBSUB\r\nCodec ID/Info: Picture based subtitle format used on DVDs\r\nDuration: 55 min 48 s\r\nBit rate: 20 b/s\r\nCount of elements: 10\r\nStream size: 8.33 KiB (0%)\r\nLanguage: English\r\nDefault: Yes\r\nForced: No\r\n\r\nScreens: <a href=\"\nhttps://i.imgur.com/MlR3PP7.jpg\" rel=\"nofollow\" target=\"_NEW\">\nhttps://i.imgur.com/MlR3PP7.jpg</a> <a href=\"\nhttps://i.imgur.com/vbPxXwH.jpg\" rel=\"nofollow\" target=\"_NEW\">\nhttps://i.imgur.com/vbPxXwH.jpg</a> <a href=\"\nhttps://i.imgur.com/APeURBF.jpg\" rel=\"nofollow\" target=\"_NEW\">\nhttps://i.imgur.com/APeURBF.jpg</a> <a href=\"\nhttps://i.imgur.com/qXSRJRz.jpg\" rel=\"nofollow\" target=\"_NEW\">\nhttps://i.imgur.com/qXSRJRz.jpg</a>","last_updated":"2017-11-19T12:04:33.304Z","parsed":{"xt":"urn:btih:334c63ca2a54daf519f649f6f257d47571001c08","dn":"Rise of the Planet of the Apes 2011 BluRay 10Bit 1080p DD5.1 H26","tr":["udp://exodus.desync.com:6969","udp://open.demonii.com:1337","udp://tracker.coppersurfer.tk:6969","udp://tracker.leechers-paradise.org:6969","udp://zer0day.ch:1337"],"infoHash":"334c63ca2a54daf519f649f6f257d47571001c08","infoHashBuffer":{"type":"Buffer","data":[51,76,99,202,42,84,218,245,25,246,73,246,242,87,212,117,113,0,28,8]},"name":"Rise of the Planet of the Apes 2011 BluRay 10Bit 1080p DD5.1 H26","announce":["udp://exodus.desync.com:6969","udp://open.demonii.com:1337","udp://tracker.coppersurfer.tk:6969","udp://tracker.leechers-paradise.org:6969","udp://zer0day.ch:1337"],"urlList":[]}}